<svg width="890" height="257" viewBox="0 0 890 257" fill="none" xmlns="http://www.w3.org/2000/svg">
<path d="M188.24 190V76.7373H216.478V141.282H212.755C212.755 132.593 213.841 125.301 216.013 119.405C218.185 113.509 221.34 109.061 225.477 106.062C229.718 103.062 234.942 101.562 241.148 101.562H242.389C251.698 101.562 258.784 104.924 263.645 111.647C268.61 118.37 271.093 128.249 271.093 141.282V190H242.855V140.195C242.855 136.265 241.665 133.058 239.286 130.576C236.907 127.99 233.752 126.697 229.822 126.697C225.891 126.697 222.684 127.99 220.202 130.576C217.72 133.058 216.478 136.368 216.478 140.506V190H188.24ZM332.728 193.103C325.177 193.103 318.453 191.965 312.558 189.69C306.662 187.414 301.645 184.259 297.508 180.225C293.474 176.191 290.371 171.537 288.198 166.261C286.13 160.986 285.095 155.349 285.095 149.35V145.626C285.095 139.42 286.181 133.627 288.354 128.249C290.629 122.87 293.836 118.164 297.973 114.13C302.111 110.096 307.127 106.941 313.023 104.665C318.919 102.39 325.487 101.252 332.728 101.252C340.072 101.252 346.64 102.39 352.432 104.665C358.328 106.941 363.345 110.096 367.482 114.13C371.62 118.164 374.774 122.87 376.947 128.249C379.222 133.627 380.36 139.42 380.36 145.626V149.35C380.36 155.349 379.274 160.986 377.102 166.261C375.033 171.537 371.93 176.191 367.793 180.225C363.759 184.259 358.794 187.414 352.898 189.69C347.002 191.965 340.279 193.103 332.728 193.103ZM332.728 169.52C337.072 169.52 340.641 168.589 343.433 166.727C346.33 164.865 348.502 162.279 349.95 158.969C351.398 155.556 352.122 151.729 352.122 147.488C352.122 143.04 351.346 139.161 349.795 135.851C348.347 132.438 346.174 129.748 343.278 127.783C340.382 125.818 336.865 124.835 332.728 124.835C328.59 124.835 325.073 125.818 322.177 127.783C319.281 129.748 317.057 132.438 315.506 135.851C314.057 139.161 313.333 143.04 313.333 147.488C313.333 151.729 314.057 155.556 315.506 158.969C316.954 162.279 319.126 164.865 322.022 166.727C324.918 168.589 328.487 169.52 332.728 169.52ZM436.625 191.241C427.316 191.241 419.869 190.103 414.283 187.828C408.801 185.552 404.819 181.777 402.336 176.502C399.854 171.226 398.612 164.089 398.612 155.09L398.768 82.0126H424.834L424.678 155.866C424.678 159.693 425.661 162.641 427.626 164.71C429.695 166.675 432.643 167.658 436.47 167.658H448.262V191.241H436.625ZM386.2 124.835V104.355H448.262V124.835H386.2ZM500.789 193.103C491.79 193.103 484.084 191.448 477.671 188.138C471.361 184.828 466.5 180.07 463.086 173.864C459.776 167.554 458.121 159.952 458.121 151.056V144.85H486.67V151.987C486.67 156.125 487.859 159.538 490.238 162.227C492.721 164.813 496.186 166.106 500.634 166.106C505.081 166.106 508.495 164.813 510.874 162.227C513.356 159.538 514.598 156.125 514.598 151.987V98.7693H543.456V151.056C543.456 159.952 541.75 167.554 538.336 173.864C535.026 180.07 530.216 184.828 523.907 188.138C517.597 191.448 509.891 193.103 500.789 193.103ZM470.844 101.872V76.7373H543.456V101.872H470.844ZM590.244 159.9V135.075H608.862C612.379 135.075 615.431 134.403 618.016 133.058C620.602 131.61 622.619 129.593 624.067 127.007C625.516 124.421 626.24 121.37 626.24 117.853C626.24 114.233 625.516 111.13 624.067 108.544C622.619 105.958 620.602 103.993 618.016 102.648C615.431 101.303 612.379 100.631 608.862 100.631H590.244V75.8064H608.087C617.81 75.8064 626.188 77.4614 633.222 80.7713C640.359 83.9779 645.841 88.6325 649.668 94.7352C653.495 100.838 655.409 108.13 655.409 116.612V119.094C655.409 127.473 653.495 134.713 649.668 140.816C645.841 146.919 640.359 151.625 633.222 154.935C626.188 158.245 617.81 159.9 608.087 159.9H590.244ZM564.488 190V75.8064H593.347V190H564.488ZM669.339 190V76.7373H697.266V190H669.339ZM694.163 190V166.417H741.951V190H694.163ZM694.163 144.229V120.646H738.693V144.229H694.163ZM694.163 100.321V76.7373H741.02V100.321H694.163ZM814.716 193.103C804.062 193.103 794.908 191.345 787.253 187.828C779.599 184.208 773.341 179.501 768.48 173.709C763.618 167.916 760.05 161.607 757.774 154.78C755.499 147.953 754.361 141.282 754.361 134.765V131.352C754.361 124.318 755.55 117.388 757.929 110.561C760.308 103.631 763.877 97.3729 768.635 91.7873C773.496 86.2018 779.547 81.754 786.788 78.444C794.029 75.0306 802.51 73.3239 812.233 73.3239C822.68 73.3239 831.886 75.2375 839.851 79.0647C847.919 82.8918 854.384 88.2188 859.245 95.0455C864.107 101.769 866.951 109.578 867.779 118.474H838.92C838.299 115.06 836.799 112.009 834.42 109.32C832.041 106.527 828.938 104.355 825.111 102.803C821.387 101.148 817.095 100.321 812.233 100.321C807.579 100.321 803.441 101.148 799.821 102.803C796.304 104.355 793.305 106.63 790.822 109.63C788.443 112.526 786.633 115.991 785.392 120.025C784.15 124.059 783.53 128.455 783.53 133.214C783.53 137.972 784.202 142.419 785.547 146.557C786.891 150.591 788.857 154.159 791.443 157.262C794.029 160.262 797.287 162.589 801.217 164.244C805.148 165.899 809.647 166.727 814.716 166.727C821.129 166.727 826.663 165.382 831.317 162.693C835.972 160.003 839.23 156.435 841.092 151.987L838.92 169.054V144.385H865.296V167.658C860.538 175.829 853.763 182.139 844.971 186.587C836.282 190.931 826.197 193.103 814.716 193.103ZM811.613 149.97V129.8H874.605V149.97H811.613Z" fill="white"/>
<g clip-path="url(#clip0_12_8)">
<path d="M49.0558 0C73.5838 49.1719 0 73.7578 0 122.93C0 172.102 49.0558 196.688 49.0558 196.688C25.0261 148.015 98.1117 122.93 98.1117 73.7578C98.1117 24.5859 49.0558 0 49.0558 0Z" fill="white"/>
<path d="M101.944 60.3125C126.472 109.484 52.8883 134.07 52.8883 183.242C52.8883 232.414 101.944 257 101.944 257C77.9144 208.328 151 183.242 151 134.07C151 84.8984 101.944 60.3125 101.944 60.3125Z" fill="white"/>
</g>
<defs>
<clipPath id="clip0_12_8">
<rect width="151" height="257" fill="white"/>
</clipPath>
</defs>
</svg>
