<svg width="49" height="49" viewBox="0 0 49 49" fill="none" xmlns="http://www.w3.org/2000/svg">
<path d="M0 19.75C0 19.12 0 18.5 0 17.87C0.06 17.36 0.12 16.85 0.19 16.34C0.56 13.41 1.59 10.73 3.23 8.29C5.26 5.28 7.95 3.05 11.28 1.6C14.94 0 18.74 -0.4 22.63 0.4C26.69 1.24 30.14 3.2 32.9 6.32C35.71 9.49 37.28 13.19 37.6 17.4C37.91 21.64 36.91 25.57 34.58 29.14C34.49 29.28 34.41 29.42 34.31 29.59C35.3 29.81 36 30.35 36.66 31.01C40.01 34.37 43.37 37.73 46.73 41.09C46.96 41.32 47.18 41.57 47.39 41.83C48.44 43.17 48.4 45.26 47.34 46.59C46.65 47.46 45.74 47.91 44.69 48.15H43.66C42.43 47.91 41.54 47.17 40.69 46.31C37.78 43.37 34.84 40.46 31.92 37.53C30.98 36.59 29.88 35.76 29.6 34.31C29.42 34.42 29.3 34.48 29.18 34.56C26.8 36.12 24.2 37.09 21.38 37.47C17.76 37.96 14.26 37.51 10.98 35.93C4.79 32.96 1.18 28.04 0.18 21.23C0.11 20.74 0.06 20.24 0 19.75ZM32.91 18.83C32.89 11.07 26.59 4.78 18.84 4.79C11.07 4.79 4.78 11.09 4.79 18.85C4.79 26.61 11.11 32.92 18.85 32.91C26.6 32.89 32.93 26.57 32.91 18.84V18.83Z" fill="white"/>
</svg>
