<?xml version="1.0" encoding="UTF-8"?>
<svg id="Camada_2" data-name="Camada 2" xmlns="http://www.w3.org/2000/svg" viewBox="0 0 48.14 48.16">
  <defs>
    <style>
      .cls-1 {
        fill: #8e8e8e;
        stroke-width: 0px;
      }
    </style>
  </defs>
  <g id="Camada_1-2" data-name="Camada 1">
    <path class="cls-1" d="m0,19.75c0-.63,0-1.25,0-1.88.06-.51.12-1.02.19-1.53.37-2.93,1.4-5.61,3.04-8.05C5.26,5.28,7.95,3.05,11.28,1.6,14.94,0,18.74-.4,22.63.4c4.06.84,7.51,2.8,10.27,5.92,2.81,3.17,4.38,6.87,4.7,11.08.31,4.24-.69,8.17-3.02,11.74-.09.14-.17.28-.27.45.99.22,1.69.76,2.35,1.42,3.35,3.36,6.71,6.72,10.07,10.08.23.23.45.48.66.74,1.05,1.34,1.01,3.43-.05,4.76-.69.87-1.6,1.32-2.65,1.56h-1.03c-1.23-.24-2.12-.98-2.97-1.84-2.91-2.94-5.85-5.85-8.77-8.78-.94-.94-2.04-1.77-2.32-3.22-.18.11-.3.17-.42.25-2.38,1.56-4.98,2.53-7.8,2.91-3.62.49-7.12.04-10.4-1.54C4.79,32.96,1.18,28.04.18,21.23c-.07-.49-.12-.99-.18-1.48Zm32.91-.92c-.02-7.76-6.32-14.05-14.07-14.04-7.77,0-14.06,6.3-14.05,14.06,0,7.76,6.32,14.07,14.06,14.06,7.75-.02,14.08-6.34,14.06-14.07Z"/>
  </g>
</svg>